HIERARCHY
ROOT joint_Root
{
	OFFSET 0.0 0.0 0.0
	CHANNELS 6 Xposition Yposition Zposition Zrotation Xrotation Yrotation 
	JOINT Hips
	{
		OFFSET -0.726466 93.3139 -2.00062
		CHANNELS 6 Xposition Yposition Zposition Zrotation Xrotation Yrotation 
		JOINT Spine
		{
			OFFSET 15.7357 0.0 0.0
			CHANNELS 6 Xposition Yposition Zposition Zrotation Xrotation Yrotation 
			JOINT Chest
			{
				OFFSET 8.98455 -0.406207 0.0
				CHANNELS 6 Xposition Yposition Zposition Zrotation Xrotation Yrotation 
				JOINT Neck
				{
					OFFSET 16.3773 0.0 0.0
					CHANNELS 6 Xposition Yposition Zposition Zrotation Xrotation Yrotation 
					JOINT Head
					{
						OFFSET 6.45672 0.0 0.0
						CHANNELS 6 Xposition Yposition Zposition Zrotation Xrotation Yrotation 
						End Site
						{
							OFFSET 0.0 0.0 0.0
						}
					}
				}
				JOINT Shoulder_L
				{
					OFFSET 12.9942 -0.242716 4.98039
					CHANNELS 6 Xposition Yposition Zposition Zrotation Xrotation Yrotation 
					JOINT UpperArm_L
					{
						OFFSET 5.34809 0.0 0.0
						CHANNELS 6 Xposition Yposition Zposition Zrotation Xrotation Yrotation 
						JOINT LowerArm_L
						{
							OFFSET 24.3286 1.87007e-05 0.0
							CHANNELS 6 Xposition Yposition Zposition Zrotation Xrotation Yrotation 
							JOINT Hand_L
							{
								OFFSET 22.2916 0.0 0.0
								CHANNELS 6 Xposition Yposition Zposition Zrotation Xrotation Yrotation 
								End Site
								{
									OFFSET 0.0 0.0 0.0
								}
							}
						}
					}
				}
				JOINT Shoulder_R
				{
					OFFSET 12.9945 -0.242716 -4.98039
					CHANNELS 6 Xposition Yposition Zposition Zrotation Xrotation Yrotation 
					JOINT UpperArm_R
					{
						OFFSET -5.34813 0.0 0.0
						CHANNELS 6 Xposition Yposition Zposition Zrotation Xrotation Yrotation 
						JOINT LowerArm_R
						{
							OFFSET -24.3289 0.000322201 0.0
							CHANNELS 6 Xposition Yposition Zposition Zrotation Xrotation Yrotation 
							JOINT Hand_R
							{
								OFFSET -22.2915 -0.000108084 0.0
								CHANNELS 6 Xposition Yposition Zposition Zrotation Xrotation Yrotation 
								End Site
								{
									OFFSET 0.0 0.0 0.0
								}
							}
						}
					}
				}
			}
		}
		JOINT UpperLeg_L
		{
			OFFSET -2.19248 -6.46944 0.0
			CHANNELS 6 Xposition Yposition Zposition Zrotation Xrotation Yrotation 
			JOINT LowerLeg_L
			{
				OFFSET 39.0811 0.0 -1.23785e-05
				CHANNELS 6 Xposition Yposition Zposition Zrotation Xrotation Yrotation 
				JOINT Foot_L
				{
					OFFSET 40.9854 0.0 -1.26872e-05
					CHANNELS 6 Xposition Yposition Zposition Zrotation Xrotation Yrotation 
					JOINT Toes_L
					{
						OFFSET 11.7543 0.0 0.0
						CHANNELS 6 Xposition Yposition Zposition Zrotation Xrotation Yrotation 
						End Site
						{
							OFFSET 0.0 0.0 0.0
						}
					}
				}
			}
		}
		JOINT UpperLeg_R
		{
			OFFSET -2.19251 6.46944 0.0
			CHANNELS 6 Xposition Yposition Zposition Zrotation Xrotation Yrotation 
			JOINT LowerLeg_R
			{
				OFFSET -39.0811 -0.00228153 -0.0401928
				CHANNELS 6 Xposition Yposition Zposition Zrotation Xrotation Yrotation 
				JOINT Foot_R
				{
					OFFSET -40.9854 0.0 0.0
					CHANNELS 6 Xposition Yposition Zposition Zrotation Xrotation Yrotation 
					JOINT Toes_R
					{
						OFFSET -11.7543 0.0 0.0
						CHANNELS 6 Xposition Yposition Zposition Zrotation Xrotation Yrotation 
						End Site
						{
							OFFSET 0.0 0.0 0.0
						}
					}
				}
			}
		}
	}
}
MOTION
Frames:	4
Frame Time:	0.0333333
0.000000 0.000000 0.000000 0.000000 0.000000 -0.000000 -1.390900 92.881200 -0.324096 88.943700 -3.427240 1.529470 15.735700 0.000005 -0.000001 96.299100 86.324300 -96.174600 8.984550 -0.406207 -0.000000 -0.459746 0.797488 0.251951 16.377300 -0.000001 -0.000001 2.383700 -1.879910 3.561360 6.456720 -0.000001 -0.000000 4.813380 -0.455606 -4.149870 12.994200 -0.242716 4.980390 -90.630000 1.954550 -72.130600 5.348090 -0.000007 -0.000001 -67.978600 40.409800 -11.412400 24.328600 0.000019 0.000005 3.101820 7.617750 -22.233700 22.291600 -0.000001 0.000005 3.781490 5.492880 -6.249080 12.994500 -0.242716 -4.980390 87.475800 8.637550 -73.641100 -5.348130 -0.000001 -0.000004 -64.176500 37.732600 -13.729000 -24.328900 0.000322 -0.000009 4.850400 13.470200 -20.020000 -22.291500 -0.000108 -0.000004 5.799170 5.312500 -0.280713 -2.192480 -6.469440 -0.000000 -175.723000 -8.110380 -1.911510 39.081100 -0.000007 -0.000012 -0.077540 0.255865 16.859500 40.985400 -0.000006 -0.000013 -1.589250 2.322720 -63.362900 11.754300 -0.000000 0.000003 -0.000001 -0.000008 -16.577800 -2.192510 6.469440 -0.000001 179.475000 10.302000 -179.336000 -39.081100 -0.002282 -0.040193 -0.037699 0.166221 13.866300 -40.985400 0.000008 0.000006 2.215930 7.521260 -63.453700 -11.754300 -0.000006 -0.000006 -0.003145 -0.042234 -18.290700
0.000000 0.000000 0.000000 0.000000 0.000000 -0.000000 -1.378150 92.906900 -0.328498 88.941900 -3.510800 1.418440 15.735700 0.000005 -0.000001 96.481700 86.351500 -96.409300 8.984550 -0.406207 -0.000000 -0.516236 0.818314 0.148461 16.377300 -0.000001 -0.000001 2.627400 -1.713080 3.459960 6.456720 -0.000001 -0.000000 4.170500 -0.164734 -4.036730 12.994200 -0.242716 4.980390 -90.617300 1.891850 -71.924300 5.348090 -0.000007 -0.000001 -68.034900 40.272600 -11.417000 24.328600 0.000019 0.000005 3.108370 7.583770 -22.365600 22.291600 -0.000001 0.000005 3.839900 5.491440 -6.192170 12.994500 -0.242716 -4.980390 87.431500 8.619120 -73.336000 -5.348130 -0.000001 -0.000004 -64.119600 36.025400 -13.781700 -24.328900 0.000322 -0.000009 6.030640 14.945400 -22.275900 -22.291500 -0.000108 -0.000004 3.679750 5.301680 0.027898 -2.192480 -6.469440 -0.000000 -175.757000 -8.153900 -1.892260 39.081100 -0.000007 -0.000012 -0.075197 0.251974 16.616700 40.985400 -0.000006 -0.000013 -1.591690 2.242580 -63.248600 11.754300 -0.000000 0.000003 -0.000000 -0.000005 -16.577600 -2.192510 6.469440 -0.000001 179.504000 10.442700 -179.364000 -39.081100 -0.002282 -0.040193 -0.032499 0.147195 13.681400 -40.985400 0.000008 0.000006 2.498620 7.691030 -63.400000 -11.754300 -0.000006 -0.000006 -0.003386 -0.044890 -18.398900
0.000000 0.000000 0.000000 0.000000 0.000000 -0.000000 -1.351550 92.923700 -0.343057 88.901800 -3.755250 1.337320 15.735700 0.000005 -0.000001 96.358700 86.368300 -96.327100 8.984550 -0.406207 -0.000000 -0.547560 0.801966 0.067103 16.377300 -0.000001 -0.000001 2.870280 -1.353690 3.292530 6.456720 -0.000001 -0.000000 3.555000 0.317017 -3.924060 12.994200 -0.242716 4.980390 -90.599100 1.809270 -71.674400 5.348090 -0.000007 -0.000001 -68.160100 40.126600 -11.332900 24.328600 0.000019 0.000005 3.065410 7.443810 -22.458000 22.291600 -0.000001 0.000005 3.854650 5.491970 -6.213350 12.994500 -0.242716 -4.980390 87.375300 8.617410 -72.988900 -5.348130 -0.000001 -0.000004 -64.186000 32.357000 -13.521200 -24.328900 0.000322 -0.000009 7.402320 14.558200 -27.341700 -22.291500 -0.000108 -0.000004 3.995440 5.289520 0.363036 -2.192480 -6.469440 -0.000000 -175.747000 -8.323810 -1.889390 39.081100 -0.000007 -0.000012 -0.075446 0.254723 16.498800 40.985400 -0.000006 -0.000013 -1.593400 2.129610 -63.200100 11.754300 -0.000000 0.000003 -0.000001 -0.000013 -16.578000 -2.192510 6.469440 -0.000001 179.537000 10.474900 -179.407000 -39.081100 -0.002282 -0.040193 -0.028885 0.133599 13.558000 -40.985400 0.000008 0.000006 2.730610 7.965640 -63.354800 -11.754300 -0.000006 -0.000006 -0.003525 -0.046401 -18.460400
0.000000 0.000000 0.000000 0.000000 0.000000 -0.000000 -1.298340 92.938000 -0.370591 88.844000 -4.244980 1.262660 15.735700 0.000005 -0.000001 96.437100 86.384200 -96.434900 8.984550 -0.406207 -0.000000 -0.580058 0.810419 0.008482 16.377300 -0.000001 -0.000001 3.139560 -0.843864 3.174580 6.456720 -0.000001 -0.000000 2.913760 0.983522 -3.981850 12.994200 -0.242716 4.980390 -90.578600 1.718110 -71.385300 5.348090 -0.000007 -0.000001 -68.249100 40.163900 -11.277700 24.328600 0.000019 0.000005 3.130890 7.611450 -22.438600 22.291600 -0.000001 0.000005 3.631570 5.490380 -6.150350 12.994500 -0.242716 -4.980390 87.304000 8.634640 -72.585900 -5.348130 -0.000001 -0.000004 -63.674900 28.212300 -13.658700 -24.328900 0.000322 -0.000009 8.162290 11.697100 -35.289100 -22.291500 -0.000108 -0.000004 6.771350 5.295700 0.193745 -2.192480 -6.469440 -0.000000 -175.749000 -8.605940 -1.870520 39.081100 -0.000007 -0.000012 -0.073902 0.250764 16.420700 40.985400 -0.000006 -0.000013 -1.588750 1.893500 -63.190600 11.754300 -0.000000 0.000003 -0.000001 -0.000008 -16.577800 -2.192510 6.469440 -0.000001 179.562000 10.376700 -179.496000 -39.081100 -0.002282 -0.040193 -0.026183 0.123253 13.467200 -40.985400 0.000008 0.000006 2.869940 8.342540 -63.277500 -11.754300 -0.000006 -0.000006 -0.003322 -0.044197 -18.370600
